<svg id="Layer_1" data-name="Layer 1" xmlns="http://www.w3.org/2000/svg" xmlns:xlink="http://www.w3.org/1999/xlink" viewBox="0 0 1033.46 349"><defs><style>.cls-1{fill:url(#radial-gradient);}.cls-2{font-size:200px;font-family:AvenirNext-UltraLight, Avenir Next;font-weight:100;letter-spacing:0.12em;}.cls-3{letter-spacing:0.06em;}.cls-4{letter-spacing:0.12em;}</style><radialGradient id="radial-gradient" cx="213" cy="345" r="174.5" gradientUnits="userSpaceOnUse"><stop offset="0.11" stop-color="#363233"/><stop offset="1"/></radialGradient></defs><path class="cls-1" d="M213,170.5A174.5,174.5,0,1,0,387.5,345,174.5,174.5,0,0,0,213,170.5ZM168.62,368.31q0,19.6-10.78,30.9t-32.13,11.3q-14.92,0-25.36-6.5t-14.46-15.7l4.5-1.8a36.53,36.53,0,0,0,14,14.5,40.87,40.87,0,0,0,21.33,5.5,45.94,45.94,0,0,0,17.31-2.9,30.09,30.09,0,0,0,11.62-8.1,33.09,33.09,0,0,0,6.63-12.3,53.38,53.38,0,0,0,2.14-15.5V265.31h5.21ZM319.75,389a38.47,38.47,0,0,1-11,12,49.8,49.8,0,0,1-16.23,7.4,75.45,75.45,0,0,1-19.56,2.5,83.12,83.12,0,0,1-28.57-4.7,61.8,61.8,0,0,1-21.45-12.7l4-3a59.21,59.21,0,0,0,21,12.3,76,76,0,0,0,24.77,4.1,65.52,65.52,0,0,0,17.54-2.3,50.07,50.07,0,0,0,14.7-6.6A32.42,32.42,0,0,0,315,387.41a28.33,28.33,0,0,0,3.67-14.5,23,23,0,0,0-4-13.8,36.53,36.53,0,0,0-10.43-9.6,67,67,0,0,0-14.58-6.7q-8.17-2.7-16.47-4.9-10.44-2.81-19.09-5.9a60.53,60.53,0,0,1-14.93-7.6,32.17,32.17,0,0,1-9.72-10.8q-3.45-6.3-3.44-15.3a29.82,29.82,0,0,1,4.15-15.7A36.09,36.09,0,0,1,241.4,271a55.86,55.86,0,0,1,16.47-7.2,76.35,76.35,0,0,1,19.8-2.5,71.93,71.93,0,0,1,24.3,4.1,48.18,48.18,0,0,1,18.84,11.7l-4,3a44.59,44.59,0,0,0-16.95-10.9,62.79,62.79,0,0,0-22.4-3.9,70.23,70.23,0,0,0-16.71,2,51.17,51.17,0,0,0-14.82,6.1,33.46,33.46,0,0,0-10.66,10.3,26.15,26.15,0,0,0-4,14.6,25.76,25.76,0,0,0,3.55,13.9,32.29,32.29,0,0,0,9.48,9.7,57.49,57.49,0,0,0,13.4,6.6q7.47,2.6,15.29,4.8,10.67,3,19.91,6.1a75.8,75.8,0,0,1,16.24,7.5,33.52,33.52,0,0,1,10.9,10.7,28.43,28.43,0,0,1,3.92,15.3A31.36,31.36,0,0,1,319.75,389Z" transform="translate(-38.5 -170.5)"/><text class="cls-2" transform="translate(381.47 240.47)">L<tspan class="cls-3" x="123.8" y="0">A</tspan><tspan class="cls-4" x="269.19" y="0">TIN</tspan></text></svg>